<?xml version="1.0" standalone="no"?><!DOCTYPE svg PUBLIC "-//W3C//DTD SVG 1.1//EN" "http://www.w3.org/Graphics/SVG/1.1/DTD/svg11.dtd"><svg t="1595560510064" class="icon" viewBox="0 0 1024 1024" version="1.1" xmlns="http://www.w3.org/2000/svg" p-id="4596" xmlns:xlink="http://www.w3.org/1999/xlink" width="200" height="200"><defs><style type="text/css"></style></defs><path d="M473.565867 281.9072a18.136178 18.136178 0 0 0-13.812623 3.197156l-11.423288 8.146488-5.176889-7.247644a52.713244 52.713244 0 0 0-4.676267-5.632c16.918756-56.695467 9.875911-120.149333-24.905956-173.4656C350.8224 10.717867 221.4912-16.497778 125.292089 46.250667 29.0816 108.999111 1.865956 238.330311 64.6144 334.5408c48.150756 73.807644 135.452444 106.814578 216.951467 89.929956 39.378489 49.095111 246.237867 305.299911 291.339377 325.256533 17.726578 7.827911 38.820978 6.030222 59.426134-5.063111 2.56-1.388089 5.085867-2.878578 7.554844-4.494222 7.395556-4.824178 14.267733-10.683733 20.548267-17.2032 15.530667 16.031289 38.8096 44.168533 44.782933 67.527111a73.739378 73.739378 0 0 0-3.515733-1.297067c-21.185422-7.304533-59.107556-4.243911-72.135111 20.388978-6.519467 12.288-5.7344 28.546844 1.968355 41.437866 7.5776 12.708978 21.9136 21.174044 36.511289 21.583645 27.693511 0.773689 46.102756-29.001956 54.636089-46.842311 12.435911 9.056711 24.439467 21.276444 30.287645 35.6352 4.437333 10.877156 4.994844 21.720178 1.672533 32.915911a68.835556 68.835556 0 0 0-45.044622-11.776c-22.368711 2.264178-38.001778 12.014933-44.020623 27.477333-7.168 18.340978 3.026489 35.180089 4.209778 37.023289 12.822756 20.206933 37.216711 20.650667 39.981511 20.627911 17.567289-0.136533 33.735111-10.695111 48.219023-31.470933 1.183289 4.881067 1.342578 9.580089 1.001244 13.767111-0.682667 8.192-3.857067 15.963022-8.317156 22.869333L729.429333 1005.681778a5.370311 5.370311 0 0 0 1.592889 7.429689c7.907556 5.12 18.477511 2.855822 23.586134-5.063111l14.609066-22.6304c6.542222-10.1376 11.081956-21.595022 12.128711-33.621334a62.737067 62.737067 0 0 0-9.511822-39.651555c9.204622-19.911111 9.864533-39.810844 1.9456-59.221334-9.079467-22.289067-27.591111-39.037156-44.737422-50.062222 1.206044-37.592178-37.228089-80.349867-54.306133-97.450667 9.295644-13.801244 15.837867-29.252267 18.420622-44.680533a51.052089 51.052089 0 0 0-8.988445-37.808355L511.055644 380.950756l9.921423-12.754489a23.847822 23.847822 0 0 0 0.580266-28.353423l-35.987911-50.414933a18.295467 18.295467 0 0 0-12.003555-7.520711zM668.672 850.170311a22.675911 22.675911 0 0 1-17.863111-10.660978c-3.595378-6.007467-4.187022-14.165333-1.422222-19.410489 1.240178-2.332444 3.254044-4.323556 5.791289-5.984711 9.784889-6.382933 27.420444-7.771022 39.2192-3.709155 2.685156 0.9216 5.711644 2.184533 8.954311 3.743289-8.317156 18.181689-21.356089 36.420267-34.679467 36.022044z m40.937244 95.049956c-0.147911 0-14.449778-0.068267-20.878222-10.217245-0.056889-0.091022-5.393067-8.783644-2.2528-16.827733 1.251556-3.197156 3.629511-5.654756 6.496711-7.520711 6.155378-4.016356 14.574933-5.358933 18.887111-5.791289 10.422044-1.058133 23.2448 1.888711 33.018312 10.160355-11.514311 19.478756-23.836444 30.128356-35.271112 30.196623zM345.474844 467.729067a176.173511 176.173511 0 0 0 49.595734-22.254934 169.2672 169.2672 0 0 0 21.356089-16.497777c25.452089-23.176533 39.742578-54.658844 47.081244-75.912534L625.095111 578.9696c-0.375467 12.049067-3.572622 54.829511-29.422933 76.708978-24.712533 20.8896-55.079822 24.996978-66.207289 25.8048-49.117867-51.894044-121.230222-137.033956-183.990045-213.754311zM141.630578 221.809778a353.348267 353.348267 0 0 1 34.178844-38.5024 853.765689 853.765689 0 0 0 33.632711 40.174933 363.201422 363.201422 0 0 0-36.215466 38.308978 1080.126578 1080.126578 0 0 1-31.596089-39.981511z m17.544533 58.402133a334.791111 334.791111 0 0 0-23.529244 38.422756 583.236267 583.236267 0 0 1-31.459556-36.420267 367.638756 367.638756 0 0 1 23.688533-41.096533 1062.491022 1062.491022 0 0 0 31.300267 39.094044z m109.078756-101.193955a403.831467 403.831467 0 0 0-41.563023 29.513955 843.582578 843.582578 0 0 1-33.974044-40.686933 341.879467 341.879467 0 0 1 41.847467-30.469689 822.818133 822.818133 0 0 0 33.6896 41.642667z m-13.880889-52.997689a359.822222 359.822222 0 0 1 53.134222-22.880711 1045.321956 1045.321956 0 0 0 35.236978 38.684444 473.622756 473.622756 0 0 0-54.6816 25.543111 808.049778 808.049778 0 0 1-33.6896-41.346844z m-29.331911 114.494577a687.900444 687.900444 0 0 0 35.1232 34.6112 372.3264 372.3264 0 0 0-36.989156 41.540267 699.118933 699.118933 0 0 1-34.668089-36.898133 346.203022 346.203022 0 0 1 36.534045-39.253334z m52.451555 49.823289a538.4192 538.4192 0 0 0 27.147378 21.560889 230.764089 230.764089 0 0 0-33.974044 45.659022 371.040711 371.040711 0 0 1-30.708623-25.008355 352.813511 352.813511 0 0 1 37.535289-42.211556z m17.066667-15.2576a326.997333 326.997333 0 0 1 41.2672-29.434311 318.225067 318.225067 0 0 0 31.698489 22.755556 185.435022 185.435022 0 0 0-46.023111 27.898311 499.336533 499.336533 0 0 1-26.942578-21.219556z m-17.464889-15.325866a673.769244 673.769244 0 0 1-34.793244-34.224356 383.988622 383.988622 0 0 1 41.3696-29.229511 550.2976 550.2976 0 0 0 34.019555 33.769244 349.070222 349.070222 0 0 0-40.595911 29.684623z m26.715022-75.002311a454.803911 454.803911 0 0 1 56.342756-25.417956c13.129956 12.743111 26.248533 24.348444 38.627555 33.541689a350.799644 350.799644 0 0 0-60.643555 25.338311 507.483022 507.483022 0 0 1-34.326756-33.462044z m116.610845-3.925334c-11.0592-7.224889-23.495111-17.590044-36.443023-29.707378a544.836267 544.836267 0 0 1 24.189156-7.088355 183.364267 183.364267 0 0 1 12.253867 36.795733z m-54.613334-47.502222a974.574933 974.574933 0 0 1-34.736355-37.410133 415.0272 415.0272 0 0 1 37.694578-8.192 185.025422 185.025422 0 0 1 26.0096 31.470933c0.967111 1.479111 1.718044 3.026489 2.628266 4.516978-10.888533 3.003733-21.504 6.166756-31.596089 9.614222z m-50.915555-56.046933a1406.862222 1406.862222 0 0 1-25.417956-30.765511c3.879822-0.295822 7.805156-0.512 11.810134-0.648534a185.503289 185.503289 0 0 1 45.090133 23.267556c-10.922667 2.343822-21.344711 5.131378-31.482311 8.146489z m-51.427556-27.4432c6.997333 8.886044 16.816356 21.128533 28.455822 35.0208a377.526044 377.526044 0 0 0-51.074844 23.005866 1057.6896 1057.6896 0 0 1-29.4912-42.7008 241.277156 241.277156 0 0 1 52.110222-15.325866z m-64.147911-3.458845c-1.388089-2.230044-2.651022-4.255289-3.7888-6.132622a185.571556 185.571556 0 0 1 32.995556-4.892444c-10.205867 3.1744-19.945244 6.8608-29.206756 11.025066z m21.845333 72.954311a363.645156 363.645156 0 0 0-42.018133 30.776889 963.697778 963.697778 0 0 1-31.607467-44.987733 250.185956 250.185956 0 0 1 43.349334-29.969067 1049.463467 1049.463467 0 0 0 30.276266 44.179911zM85.378844 140.845511a972.401778 972.401778 0 0 1-7.611733-12.071822 184.593067 184.593067 0 0 1 31.9488-41.403733c2.423467 4.084622 5.472711 9.1136 9.056711 14.848a333.368889 333.368889 0 0 0-33.393778 38.627555z m45.329067-20.047644a938.040889 938.040889 0 0 0 31.425422 44.6464 376.775111 376.775111 0 0 0-34.190222 37.796977 1370.5216 1370.5216 0 0 1-29.946311-43.076266 308.315022 308.315022 0 0 1 32.711111-39.367111z m-16.907378 101.4784a395.593956 395.593956 0 0 0-24.632889 40.368355 710.985956 710.985956 0 0 1-26.601244-38.536533 351.3344 351.3344 0 0 1 22.050133-43.360711 1326.341689 1326.341689 0 0 0 29.184 41.528889z m-35.783111 63.260444c-2.491733 5.575111-4.630756 10.695111-6.439822 15.303111a184.137956 184.137956 0 0 1-14.836622-44.669155c6.087111 8.874667 13.243733 18.8416 21.276444 29.366044z m8.2944 40.721067c1.342578-4.380444 3.743289-11.559822 7.4752-20.844089a569.856 569.856 0 0 0 31.505067 35.168711 271.621689 271.621689 0 0 0-7.7824 20.548267 185.400889 185.400889 0 0 1-31.197867-34.872889z m56.558934 31.425422a370.039467 370.039467 0 0 0 37.376 30.424178c-1.251556 2.776178-2.3552 5.302044-3.265423 7.509333a185.799111 185.799111 0 0 1-40.368355-19.922489c1.251556-4.323556 3.265422-10.433422 6.257778-18.011022z m9.784888-21.879467a314.652444 314.652444 0 0 1 22.141156-37.501155 694.863644 694.863644 0 0 0 35.145956 36.795733 376.342756 376.342756 0 0 0-19.592534 32.506311 358.741333 358.741333 0 0 1-37.694578-31.800889z m74.285512 15.109689a392.419556 392.419556 0 0 0 33.3824 26.703645 248.331378 248.331378 0 0 0-8.874667 21.902222c-14.392889-4.380444-28.4672-11.0592-42.0864-19.262578 4.653511-8.692622 10.478933-18.659556 17.578667-29.343289z m52.087466 38.889245c5.085867 3.015111 10.171733 5.757156 15.2576 8.248889-6.792533 2.104889-13.630578 3.913956-20.548266 5.211022 1.353956-3.834311 3.106133-8.374044 5.290666-13.459911z m45.1584-3.822934c-11.559822-3.584-23.358578-9.147733-35.236978-16.292977a200.669867 200.669867 0 0 1 33.780623-44.9536 407.608889 407.608889 0 0 0 47.502222 27.704888 186.0608 186.0608 0 0 1-46.045867 33.541689z m61.405867-51.143111a369.925689 369.925689 0 0 1-45.1584-25.406578 164.090311 164.090311 0 0 1 53.873778-26.749155 172.145778 172.145778 0 0 0 17.271466 6.724267 184.638578 184.638578 0 0 1-25.986844 45.431466z m36.022044-80.327111c-8.8064 0.989867-17.2032 2.468978-25.1904 4.4032-13.2096-6.599111-26.362311-15.109689-39.264711-24.996978a328.453689 328.453689 0 0 1 67.265422-24.894577 186.1632 186.1632 0 0 1-2.810311 45.488355zM173.306311 46.978844c1.581511 2.651022 3.527111 5.859556 5.825422 9.580089a273.7152 273.7152 0 0 0-43.383466 30.173867c-3.561244-5.700267-6.439822-10.467556-8.6016-14.119822 3.413333-2.582756 6.781156-5.199644 10.410666-7.566222a186.026667 186.026667 0 0 1 35.748978-18.067912z m-106.985244 105.847467c1.592889 2.503111 3.288178 5.154133 5.176889 8.066845a385.706667 385.706667 0 0 0-14.734223 24.871822c2.161778-11.241244 5.370311-22.254933 9.557334-32.938667z m132.437333 249.161956a55.409778 55.409778 0 0 1 0.671289-1.490489c1.444978 0.853333 2.901333 1.695289 4.369067 2.514489-1.695289-0.329956-3.367822-0.648533-5.040356-1.024z m154.146133-6.781156a206.791111 206.791111 0 0 0 76.379023-90.0096l17.726577 24.792178c-3.458844 13.641956-16.008533 55.330133-45.704533 82.375111-27.761778 25.2928-59.107556 33.564444-71.623111 35.987911a6666.456178 6666.456178 0 0 1-24.507733-30.321778 206.904889 206.904889 0 0 0 47.729777-22.823822z m318.077156 261.848178c-4.471467 26.703644-24.541867 54.522311-49.299911 67.845689-10.160356 5.472711-25.2928 10.672356-39.685689 4.3008-6.405689-2.833067-17.976889-12.788622-33.052445-27.739022 13.801244-2.742044 31.755378-8.317156 49.072356-19.615289 4.107378-2.673778 8.180622-5.677511 12.151467-9.045334 21.265067-17.988267 30.446933-45.374578 34.417777-66.582755l21.2992 29.775644c4.437333 6.212267 6.291911 13.892267 5.097245 21.060267z m-167.719822-302.648889l-5.825423 7.497956-36.0448-50.392178 8.192-5.848178 33.700978 47.217778a1.251556 1.251556 0 0 1-0.022755 1.524622z" p-id="4597" fill="#ffffff"></path></svg>